{
  "accessors": [
    {
      "bufferView": 2,
      "componentType": 5126,
      "count": 24,
      "max": [
        12.250019073486328,
        12.221696853637695,
        2.128710985183716
      ],
      "min": [
        -12.158072471618652,
        -12.158243179321289,
        0.07456299662590027
      ],
      "type": "VEC3"
    },
    {
      "bufferView": 2,
      "byteOffset": 288,
      "componentType": 5126,
      "count": 24,
      "max": [
        1.0,
        1.0,
        1.0
      ],
      "min": [
        -1.0,
        -1.0,
        -1.0
      ],
      "type": "VEC3"
    },
    {
      "bufferView": 1,
      "componentType": 5126,
      "count": 24,
      "max": [
        0.9803259968757629,
        0.9770969748497009
      ],
      "min": [
        0.017645999789237976,
        0.013465000316500664
      ],
      "type": "VEC2"
    },
    {
      "bufferView": 0,
      "componentType": 5125,
      "count": 36,
      "type": "SCALAR"
    },
    {
      "bufferView": 2,
      "byteOffset": 576,
      "componentType": 5126,
      "count": 2963,
      "max": [
        11.353615760803223,
        13.955314636230469,
        42.46187210083008
      ],
      "min": [
        -8.937410354614258,
        -10.11707878112793,
        1.6720470190048218
      ],
      "type": "VEC3"
    },
    {
      "bufferView": 2,
      "byteOffset": 36132,
      "componentType": 5126,
      "count": 2963,
      "max": [
        1.0,
        1.0,
        1.0
      ],
      "min": [
        -1.0,
        -1.0,
        -1.0
      ],
      "type": "VEC3"
    },
    {
      "bufferView": 1,
      "byteOffset": 192,
      "componentType": 5126,
      "count": 2963,
      "max": [
        0.984620988368988,
        0.9888929724693298
      ],
      "min": [
        0.02407900057733059,
        0.014278000220656395
      ],
      "type": "VEC2"
    },
    {
      "bufferView": 0,
      "byteOffset": 144,
      "componentType": 5125,
      "count": 7773,
      "type": "SCALAR"
    },
    {
      "bufferView": 2,
      "byteOffset": 71688,
      "componentType": 5126,
      "count": 6784,
      "max": [
        12.411174774169922,
        14.572022438049316,
        49.30965805053711
      ],
      "min": [
        -10.072633743286133,
        -11.272717475891113,
        1.6587220430374146
      ],
      "type": "VEC3"
    },
    {
      "bufferView": 2,
      "byteOffset": 153096,
      "componentType": 5126,
      "count": 6784,
      "max": [
        1.0,
        1.0,
        1.0
      ],
      "min": [
        -1.0,
        -1.0,
        -1.0
      ],
      "type": "VEC3"
    },
    {
      "bufferView": 1,
      "byteOffset": 23896,
      "componentType": 5126,
      "count": 6784,
      "max": [
        0.9826740026473999,
        0.9902439713478088
      ],
      "min": [
        0.016011999920010567,
        0.01583399996161461
      ],
      "type": "VEC2"
    },
    {
      "bufferView": 0,
      "byteOffset": 31236,
      "componentType": 5125,
      "count": 10341,
      "type": "SCALAR"
    }
  ],
  "asset": {
    "extras": {
      "author": "limorianna (https://sketchfab.com/limorianna)",
      "license": "CC-BY-4.0 (http://creativecommons.org/licenses/by/4.0/)",
      "source": "https://sketchfab.com/3d-models/ountryside-house-6226dce177404b2aad48e62a0f61755b",
      "title": "Сountryside House"
    },
    "generator": "Sketchfab-12.63.0",
    "version": "2.0"
  },
  "bufferViews": [
    {
      "buffer": 0,
      "byteLength": 72600,
      "name": "floatBufferViews",
      "target": 34963
    },
    {
      "buffer": 0,
      "byteLength": 78168,
      "byteOffset": 72600,
      "byteStride": 8,
      "name": "floatBufferViews",
      "target": 34962
    },
    {
      "buffer": 0,
      "byteLength": 234504,
      "byteOffset": 150768,
      "byteStride": 12,
      "name": "floatBufferViews",
      "target": 34962
    }
  ],
  "buffers": [
    {
      "byteLength": 385272,
      "uri": "scene.bin"
    }
  ],
  "images": [
    {
      "uri": "textures/lambert11SG_baseColor.png"
    },
    {
      "uri": "textures/lambert15SG_baseColor.png"
    }
  ],
  "materials": [
    {
      "doubleSided": true,
      "name": "lambert11SG",
      "pbrMetallicRoughness": {
        "baseColorTexture": {
          "index": 0
        },
        "metallicFactor": 0.0,
        "roughnessFactor": 0.6
      }
    },
    {
      "doubleSided": true,
      "name": "lambert15SG",
      "pbrMetallicRoughness": {
        "baseColorTexture": {
          "index": 1
        },
        "metallicFactor": 0.0,
        "roughnessFactor": 0.6
      }
    }
  ],
  "meshes": [
    {
      "name": "Object_0",
      "primitives": [
        {
          "attributes": {
            "NORMAL": 1,
            "POSITION": 0,
            "TEXCOORD_0": 2
          },
          "indices": 3,
          "material": 0,
          "mode": 4
        }
      ]
    },
    {
      "name": "Object_1",
      "primitives": [
        {
          "attributes": {
            "NORMAL": 5,
            "POSITION": 4,
            "TEXCOORD_0": 6
          },
          "indices": 7,
          "material": 1,
          "mode": 4
        }
      ]
    },
    {
      "name": "Object_2",
      "primitives": [
        {
          "attributes": {
            "NORMAL": 9,
            "POSITION": 8,
            "TEXCOORD_0": 10
          },
          "indices": 11,
          "material": 1,
          "mode": 4
        }
      ]
    }
  ],
  "nodes": [
    {
      "children": [
        1
      ],
      "matrix": [
        1.0,
        0.0,
        0.0,
        0.0,
        0.0,
        2.220446049250313e-16,
        -1.0,
        0.0,
        0.0,
        1.0,
        2.220446049250313e-16,
        0.0,
        0.0,
        0.0,
        0.0,
        1.0
      ],
      "name": "Sketchfab_model"
    },
    {
      "children": [
        2,
        3,
        4
      ],
      "name": "house_final.obj.cleaner.materialmerger.gles"
    },
    {
      "mesh": 0,
      "name": "Object_2"
    },
    {
      "mesh": 1,
      "name": "Object_3"
    },
    {
      "mesh": 2,
      "name": "Object_4"
    }
  ],
  "samplers": [
    {
      "magFilter": 9729,
      "minFilter": 9987,
      "wrapS": 10497,
      "wrapT": 10497
    }
  ],
  "scene": 0,
  "scenes": [
    {
      "name": "Sketchfab_Scene",
      "nodes": [
        0
      ]
    }
  ],
  "textures": [
    {
      "sampler": 0,
      "source": 0
    },
    {
      "sampler": 0,
      "source": 1
    }
  ]
}
